PathFileType	4	(X/Y/Z)	C:/Users/beibeiliu/ov580/test_trc/User2\sequence.9_training_dense_right.trc
DataRate	CameraRate	NumFrames	NumMarkers	Units	OrigDataRate	OrigDataStartFrame	OrigNumFrames
120	120	10	19	mm	120	1	80
Frame#	Time	ThumbCMC			ThumbMCP			ThumbIP			ThumbTip			IndexMCP			IndexPIP			IndexTip			MiddleMCP			MiddlePIP			MiddleTip			RingMCP			RingPIP			RingTip			PinkyMCP			PinkyPIP			PinkyTip			BackHand1			BackHand2			BackHand3	
		X0	Y0	Z0	X1	Y1	Z1	X2	Y2	Z2	X3	Y3	Z3	X4	Y4	Z4	X5	Y5	Z5	X6	Y6	Z6	X7	Y7	Z7	X8	Y8	Z8	X9	Y9	Z9	X10	Y10	Z10	X11	Y11	Z11	X12	Y12	Z12	X13	Y13	Z13	X14	Y14	Z14	X15	Y15	Z15	X16	Y16	Z16	X17	Y17	Z17	X18	Y18	Z18	
0	0	87.421	1.87059	-0.902442	57.0382	-4.36522	-16.3575	32.6265	-10.1731	-40.1902	16.5781	-16.7948	-56.8547	90.9015	26.4865	-82.2127	80.0586	26.5481	-111.856	70.0281	26.7859	-134.017	124.351	29.0255	-91.6106	119.077	31.4065	-123.126	121.015	30.6446	-156.114	147.696	15.7464	-90.7299	150.831	15.8116	-117.996	155.276	16.8589	-146.889	169.471	-0.773374	-76.7039	181.098	-3.88814	-99.5525	192.462	-2.89036	-118.209	148.944	18.0705	-33.6808	151.992	20.7957	0.954056	116.436	25.579	-12.6639	
1	0.00833333	84.2293	2.97319	-5.35888	61.1913	-4.94633	-16.68	33.6015	-9.35688	-41.8875	14.131	-16.7954	-53.3255	90.4622	25.7845	-82.3492	77.6977	27.958	-110.651	72.3984	26.4088	-138.55	120.378	28.894	-90.5639	117.886	31.6573	-127.227	120.306	31.4108	-158.005	144.983	16.7886	-93.176	154.27	14.5088	-114.991	153.299	17.3554	-146.565	168	-1.13267	-76.5008	180.96	-3.81039	-100.974	188.845	-2.19146	-123.492	148.125	17.6252	-33.8621	151.698	19.8781	0.102033	115.216	27.1335	-15.8027	
2	0.0166667	84.2186	2.18283	0.0881246	61.1588	-4.99512	-19.2594	32.6232	-9.1603	-40.3252	16.6035	-15.5902	-55.716	90.7548	25.9458	-82.6479	77.9202	27.5279	-106.73	73.7443	26.3418	-135.442	120.1	29.9141	-95.4073	117.633	31.8803	-126.524	120.491	31.2145	-159.254	147.746	15.9945	-91.6081	150.162	15.2047	-115.079	153.715	16.2089	-145.369	168.504	0.286162	-77.7604	179.606	-5.05254	-98.9459	187.643	-2.58419	-119.727	149.004	17.8334	-34.9789	154.672	20.5774	-2.84241	117.534	27.048	-14.4037	
3	0.025	82.9012	3.26659	-2.1652	59.5663	-4.47582	-15.3736	32.8943	-8.51818	-41.1084	14.255	-15.7843	-55.3546	89.2297	26.4473	-79.8617	77.13	27.8755	-110.564	74.4732	26.5255	-136.987	124.295	29.8109	-93.1368	121.523	31.8826	-127.483	122.826	30.3535	-157.246	146.552	18.177	-92.7151	152.055	16.9312	-118.531	152.501	16.8133	-145.842	168.178	0.636583	-76.1848	177.857	-4.10852	-97.0908	190.265	-1.66502	-122.594	146.559	20.4837	-34.2244	153.391	18.9276	0.196737	113.522	27.3306	-17.1507	
4	0.0333333	81.8339	4.56001	-2.80716	60.3908	-4.0637	-16.3856	33.1378	-8.41646	-39.4419	15.0063	-15.8411	-55.9736	90.0134	27.6385	-83.4923	77.9025	28.9202	-107.095	75.0668	26.2755	-135.965	119.839	30.1008	-89.0716	119.096	31.7938	-126.833	119.566	31.8612	-154.894	145.474	16.7756	-87.6089	148.897	17.4829	-118.964	152.543	18.4873	-146.89	168.96	-0.662919	-73.1559	180.011	-2.48052	-100.859	190.37	-2.42575	-122.751	147.432	19.195	-30.9605	156.492	20.6472	0.183998	119.286	26.3749	-13.7027	
5	0.0416667	82.2551	3.87143	-3.98308	62.0675	-4.72801	-17.6539	36.1786	-10.3354	-36.2743	16.7799	-16.4957	-52.4374	87.5042	26.7818	-81.1554	81.2917	28.3999	-110.355	68.3459	27.5156	-137.045	122.329	29.6099	-89.4853	121.936	32.0026	-123.323	119.187	31.7121	-153.063	144.785	17.7585	-90.8881	152.002	17.136	-115.313	150.201	17.4077	-143.01	171.284	-0.491839	-75.913	177.654	-2.67437	-97.542	193.095	-1.18116	-122.28	151.278	17.909	-34.0997	153.363	19.9065	-2.32359	118.549	26.7063	-17.4603	
6	0.05	84.6067	2.98851	-3.52188	59.0542	-3.82579	-14.9894	30.853	-8.80493	-36.6754	13.1584	-16.8663	-49.6755	88.7556	27.0074	-81.5968	76.1538	29.0423	-109.105	73.8359	27.2502	-136.882	119.645	31.0253	-90.0809	119.563	32.3943	-123.122	119.702	31.6301	-155.038	148.941	17.7306	-90.3857	153.012	17.0437	-115.364	153.772	17.6025	-142.598	168.09	-0.0213725	-73.6906	182.241	-4.07448	-98.5911	193.262	-1.70404	-122.56	148.129	19.5643	-30.7326	151.276	19.9964	0.30648	116.315	26.5503	-16.4052	
7	0.0583333	84.6299	2.66739	1.00936	59.7787	-3.71213	-15.4669	33.1	-9.06985	-36.4975	14.186	-15.661	-53.3238	87.4338	28.0406	-81.1552	79.4697	28.4039	-111.55	71.6036	28.0714	-138.634	122.086	30.2663	-92.1038	120.148	32.1625	-124.687	122.732	31.4278	-159.224	149.884	16.9435	-90.9556	154.455	17.1894	-116.45	151.417	19.4208	-142.282	168.439	0.342992	-72.2077	178.285	-2.4216	-96.1606	192.615	0.338856	-119.413	147.865	21.1343	-34.7846	152.847	20.607	2.18107	115.039	27.4634	-13.0166	
8	0.0666667	87.4259	3.22281	-4.73246	60.9562	-2.65658	-16.729	38.2017	-7.35303	-39.3707	20.1911	-14.0494	-58.8253	89.6846	26.9015	-83.7554	79.7376	28.47	-110.18	75.6736	27.0479	-135.069	122.009	29.8094	-91.6412	119.094	31.0939	-127.308	118.107	31.2435	-152.996	145.366	18.4083	-87.7205	148.633	17.9734	-114.368	150.127	21.4578	-145.541	168.627	1.90307	-74.915	174.496	0.321179	-101.154	187.037	1.07933	-120.549	152.655	20.3717	-34.1985	156.376	20.0637	-1.98046	119.174	26.0435	-13.0599	
9	0.075	86.8064	5.19071	-0.609944	62.0515	2.61497	-22.329	43.9537	0.97921	-50.0227	32.7292	-3.11319	-75.607	91.5997	26.9821	-86.4441	80.249	25.819	-108.802	76.8713	24.8732	-139.819	114.229	30.5744	-95.9406	112.208	29.8705	-127.967	109.355	32.3135	-153.848	140.926	19.4228	-90.6232	139.173	19.5741	-116.451	137.02	23.9421	-145.521	164.9	4.42773	-78.6891	165.137	5.48171	-104.71	167.729	10.8766	-127.91	146.747	19.0932	-33.4588	155.687	19.9623	-5.43587	120.975	28.4586	-13.685	
